<?xml version="1.0" standalone="no"?><!DOCTYPE svg PUBLIC "-//W3C//DTD SVG 1.1//EN" "http://www.w3.org/Graphics/SVG/1.1/DTD/svg11.dtd"><svg class="icon" width="200px" height="200.00px" viewBox="0 0 1024 1024" version="1.1" xmlns="http://www.w3.org/2000/svg"><path fill="#333333" d="M867.271111 967.111111H157.013333c-65.422222 0-109.909333-66.332444-99.84-145.009778l86.641778-676.977777A103.537778 103.537778 0 0 1 244.622222 56.888889h535.495111a103.537778 103.537778 0 0 1 100.579556 88.519111L967.111111 822.101333c10.069333 78.677333-34.474667 145.009778-99.84 145.009778zM739.555556 170.666667a56.888889 56.888889 0 0 0-39.253334 97.792A198.428444 198.428444 0 0 1 512 440.888889a198.428444 198.428444 0 0 1-188.302222-172.430222 56.888889 56.888889 0 1 0-63.032889 10.296889A264.874667 264.874667 0 0 0 512 512a264.874667 264.874667 0 0 0 251.335111-233.244444A56.888889 56.888889 0 0 0 739.555556 170.666667z"  /></svg>