<?xml version="1.0" standalone="no"?><!DOCTYPE svg PUBLIC "-//W3C//DTD SVG 1.1//EN" "http://www.w3.org/Graphics/SVG/1.1/DTD/svg11.dtd"><svg class="icon" width="200px" height="200.00px" viewBox="0 0 1024 1024" version="1.1" xmlns="http://www.w3.org/2000/svg"><path d="M930.238 285.748c-60.434-60.436-140.778-93.716-226.242-93.716-85.468 0-165.824 33.28-226.26 93.716-60.452 60.436-93.732 140.778-93.732 226.276 0 85.482 33.28 165.792 93.732 226.228C538.172 798.688 618.528 832 703.996 832c85.464 0 165.808-33.312 226.242-93.748 60.468-60.436 93.75-140.746 93.75-226.228 0-85.498-33.28-165.84-93.75-226.276z m-211.18 241.338c-8.312 8.344-21.812 8.344-30.124 0-8.376-8.312-8.376-21.844 0-30.156 8.312-8.344 21.812-8.344 30.124 0 8.376 8.312 8.376 21.844 0 30.156z" fill="#434A54" /><path d="M854.836 361.152c-8.344-8.312-21.844-8.312-30.156 0a21.33 21.33 0 0 0 0 30.186c66.528 66.53 66.528 174.792 0 241.352-8.344 8.312-8.344 21.812 0 30.188 8.312 8.312 21.812 8.312 30.156 0 83.184-83.184 83.184-218.54 0-301.726z" fill="#656D78" /><path d="M703.996 448.026c-35.344 0-64 28.624-64 63.998 0 35.36 28.656 63.982 64 63.982 35.34 0 63.996-28.624 63.996-63.982 0-35.374-28.656-63.998-63.996-63.998z m0 85.31a21.3 21.3 0 0 1-21.312-21.312c0-11.812 9.532-21.344 21.312-21.344s21.312 9.532 21.312 21.344a21.3 21.3 0 0 1-21.312 21.312z" fill="#FFCE54" /><path d="M661.308 170.688H21.34C9.56 170.688 0.012 180.22 0.012 192.032V832c0 11.812 9.546 21.312 21.328 21.312h639.968c11.812 0 21.376-9.5 21.376-21.312V192.032c0-11.814-9.562-21.344-21.376-21.344z" fill="#ED5564" /><path d="M341.332 320.028c-105.856 0-191.996 86.124-191.996 191.996 0 105.856 86.138 191.98 191.996 191.98 105.874 0 191.996-86.124 191.996-191.98 0-105.874-86.122-191.996-191.996-191.996z" fill="#FFCE54" /><path d="M234.664 768c-4.734 0-9.5-1.562-13.468-4.812-9.124-7.436-10.5-20.874-3.046-29.998l162.934-199.854h-125.746a21.32 21.32 0 0 1-19.282-12.218 21.326 21.326 0 0 1 2.796-22.656l192.62-234.65c7.484-9.094 20.922-10.438 30.03-2.968 9.11 7.5 10.422 20.938 2.954 30.032l-163.996 199.806h125.544a21.338 21.338 0 0 1 16.532 34.812l-191.324 234.634a21.286 21.286 0 0 1-16.548 7.872z" fill="#434A54" /></svg>